<?xml version="1.0" encoding="UTF-8"?>
<svg xmlns="http://www.w3.org/2000/svg" xmlns:xlink="http://www.w3.org/1999/xlink" width="1280" height="720" viewBox="0 0 1280 720">
<defs>
<g>
<g id="glyph-0-0">
<path d="M 0.355469 -1.953125 C 0.355469 -2.832031 0.621094 -3.605469 1.148438 -4.273438 C 1.472656 -4.679688 1.851562 -5.007812 2.292969 -5.253906 L 2.367188 -5.128906 C 1.957031 -4.804688 1.667969 -4.492188 1.492188 -4.183594 C 1.1875 -3.648438 1.03125 -2.9375 1.03125 -2.050781 C 1.03125 -1.390625 1.089844 -0.847656 1.207031 -0.421875 C 1.414062 0.328125 1.796875 0.886719 2.367188 1.261719 L 2.265625 1.386719 C 1.957031 1.238281 1.617188 0.945312 1.257812 0.507812 C 0.65625 -0.214844 0.355469 -1.03125 0.355469 -1.953125 Z "/>
</g>
<g id="glyph-0-1">
<path d="M 1.800781 -3.488281 L 1.800781 -3.382812 C 1.703125 -3.378906 1.621094 -3.367188 1.554688 -3.34375 C 1.488281 -3.320312 1.453125 -3.269531 1.453125 -3.195312 C 1.453125 -3.144531 1.523438 -3.011719 1.65625 -2.789062 C 1.726562 -2.671875 1.816406 -2.527344 1.925781 -2.359375 C 2.074219 -2.5625 2.1875 -2.722656 2.257812 -2.839844 C 2.382812 -3.027344 2.445312 -3.148438 2.445312 -3.207031 C 2.445312 -3.273438 2.417969 -3.316406 2.367188 -3.339844 C 2.3125 -3.363281 2.238281 -3.375 2.140625 -3.382812 L 2.140625 -3.488281 L 3.363281 -3.488281 L 3.363281 -3.382812 C 3.234375 -3.375 3.117188 -3.339844 3.003906 -3.277344 C 2.890625 -3.21875 2.800781 -3.140625 2.734375 -3.042969 L 2.085938 -2.105469 L 3.085938 -0.585938 C 3.214844 -0.386719 3.324219 -0.257812 3.414062 -0.203125 C 3.503906 -0.144531 3.609375 -0.113281 3.726562 -0.105469 L 3.726562 0 L 2.15625 0 L 2.15625 -0.105469 L 2.265625 -0.113281 C 2.324219 -0.117188 2.375 -0.136719 2.414062 -0.167969 C 2.453125 -0.199219 2.472656 -0.234375 2.472656 -0.28125 C 2.472656 -0.328125 2.425781 -0.433594 2.328125 -0.601562 C 2.28125 -0.679688 2.214844 -0.792969 2.121094 -0.929688 C 2.078125 -1 2.015625 -1.09375 1.929688 -1.214844 C 1.847656 -1.335938 1.773438 -1.441406 1.714844 -1.527344 L 1.105469 -0.574219 C 1.03125 -0.460938 0.984375 -0.382812 0.96875 -0.34375 C 0.949219 -0.308594 0.941406 -0.277344 0.941406 -0.25 C 0.941406 -0.203125 0.960938 -0.171875 1 -0.15625 C 1.039062 -0.140625 1.125 -0.125 1.257812 -0.105469 L 1.257812 0 L 0.132812 0 L 0.132812 -0.105469 C 0.269531 -0.132812 0.371094 -0.167969 0.4375 -0.210938 C 0.503906 -0.253906 0.589844 -0.355469 0.699219 -0.511719 L 1.582031 -1.800781 L 0.855469 -2.90625 C 0.707031 -3.125 0.605469 -3.253906 0.550781 -3.296875 C 0.496094 -3.335938 0.375 -3.367188 0.1875 -3.382812 L 0.1875 -3.488281 Z "/>
</g>
<g id="glyph-0-2">
<path d="M 1.90625 -0.078125 C 1.90625 0.175781 1.8125 0.414062 1.628906 0.632812 C 1.445312 0.855469 1.246094 1.011719 1.03125 1.109375 L 0.960938 0.957031 C 1.203125 0.820312 1.371094 0.671875 1.464844 0.511719 C 1.558594 0.351562 1.601562 0.21875 1.601562 0.113281 C 1.601562 0.078125 1.589844 0.0546875 1.570312 0.046875 C 1.546875 0.0351562 1.523438 0.03125 1.496094 0.03125 L 1.242188 0.0585938 C 1.136719 0.0585938 1.039062 0.0234375 0.949219 -0.046875 C 0.859375 -0.117188 0.816406 -0.21875 0.816406 -0.347656 C 0.816406 -0.449219 0.851562 -0.550781 0.925781 -0.644531 C 1 -0.742188 1.121094 -0.789062 1.289062 -0.789062 C 1.449219 -0.789062 1.589844 -0.726562 1.714844 -0.601562 C 1.84375 -0.476562 1.90625 -0.300781 1.90625 -0.078125 Z "/>
</g>
<g id="glyph-0-3">
<rect x="0" y="0" width="0" height="0" mask="url(#mask-0)"/>
</g>
<g id="glyph-0-4">
<path d="M 0.152344 -0.105469 C 0.421875 -0.117188 0.597656 -0.167969 0.683594 -0.257812 C 0.765625 -0.34375 0.808594 -0.527344 0.808594 -0.808594 L 0.808594 -3.246094 L 0.160156 -3.246094 L 0.160156 -3.5 L 0.808594 -3.5 C 0.808594 -3.902344 0.863281 -4.238281 0.972656 -4.515625 C 1.179688 -5.042969 1.5625 -5.308594 2.113281 -5.308594 C 2.335938 -5.308594 2.539062 -5.265625 2.714844 -5.175781 C 2.890625 -5.085938 2.976562 -4.96875 2.976562 -4.820312 C 2.976562 -4.734375 2.945312 -4.660156 2.886719 -4.59375 C 2.824219 -4.527344 2.75 -4.496094 2.664062 -4.496094 C 2.59375 -4.496094 2.527344 -4.519531 2.476562 -4.5625 C 2.421875 -4.605469 2.359375 -4.683594 2.285156 -4.796875 L 2.222656 -4.894531 C 2.1875 -4.949219 2.144531 -4.992188 2.097656 -5.03125 C 2.046875 -5.066406 1.980469 -5.085938 1.894531 -5.085938 C 1.703125 -5.085938 1.570312 -4.988281 1.503906 -4.800781 C 1.464844 -4.699219 1.445312 -4.566406 1.445312 -4.402344 L 1.445312 -3.5 L 2.398438 -3.5 L 2.398438 -3.246094 L 1.453125 -3.246094 L 1.453125 -0.808594 C 1.453125 -0.523438 1.492188 -0.339844 1.570312 -0.261719 C 1.648438 -0.179688 1.847656 -0.128906 2.175781 -0.105469 L 2.175781 0 L 0.152344 0 Z "/>
</g>
<g id="glyph-0-5">
<path d="M 2.214844 -1.914062 C 2.214844 -1.535156 2.164062 -1.179688 2.066406 -0.84375 C 1.96875 -0.507812 1.824219 -0.1875 1.632812 0.109375 C 1.433594 0.429688 1.164062 0.726562 0.832031 1.003906 C 0.613281 1.183594 0.425781 1.3125 0.277344 1.386719 L 0.203125 1.261719 C 0.59375 0.964844 0.878906 0.660156 1.058594 0.351562 C 1.378906 -0.195312 1.539062 -0.917969 1.539062 -1.816406 C 1.539062 -2.542969 1.464844 -3.136719 1.316406 -3.597656 C 1.113281 -4.246094 0.742188 -4.757812 0.203125 -5.128906 L 0.304688 -5.253906 C 0.703125 -5.03125 1.074219 -4.695312 1.421875 -4.246094 C 1.949219 -3.550781 2.214844 -2.773438 2.214844 -1.914062 Z "/>
</g>
</g>
<image id="source-9" x="0" y="0" width="0" height="0"/>
<mask id="mask-0">
<use xlink:href="#source-9"/>
</mask>
</defs>
<g fill="rgb(100%, 100%, 100%)" fill-opacity="1">
<use xlink:href="#glyph-0-0" x="30" y="25.833008"/>
<use xlink:href="#glyph-0-1" x="33" y="25.833008"/>
<use xlink:href="#glyph-0-2" x="37" y="25.833008"/>
<use xlink:href="#glyph-0-3" x="39" y="25.833008"/>
<use xlink:href="#glyph-0-4" x="41" y="25.833008"/>
<use xlink:href="#glyph-0-0" x="44" y="25.833008"/>
<use xlink:href="#glyph-0-1" x="47" y="25.833008"/>
<use xlink:href="#glyph-0-5" x="51" y="25.833008"/>
<use xlink:href="#glyph-0-5" x="54" y="25.833008"/>
</g>
</svg>
