<?xml version="1.0" encoding="UTF-8"?>
<svg xmlns="http://www.w3.org/2000/svg" xmlns:xlink="http://www.w3.org/1999/xlink" width="854" height="480" viewBox="0 0 854 480">
<defs>
<g>
<g id="glyph-0-0">
<path d="M 2.230469 -1.285156 L 1.652344 -2.660156 L 1.082031 -1.285156 Z M 0.0742188 0 L 0.0742188 -0.0898438 C 0.203125 -0.105469 0.296875 -0.152344 0.363281 -0.238281 C 0.425781 -0.320312 0.539062 -0.546875 0.695312 -0.914062 L 1.734375 -3.367188 L 1.832031 -3.367188 L 3.078125 -0.53125 C 3.160156 -0.34375 3.226562 -0.226562 3.277344 -0.183594 C 3.328125 -0.136719 3.410156 -0.105469 3.527344 -0.0898438 L 3.527344 0 L 2.257812 0 L 2.257812 -0.0898438 C 2.402344 -0.101562 2.496094 -0.121094 2.539062 -0.136719 C 2.582031 -0.15625 2.601562 -0.203125 2.601562 -0.277344 C 2.601562 -0.300781 2.59375 -0.34375 2.578125 -0.40625 C 2.5625 -0.46875 2.539062 -0.53125 2.507812 -0.601562 L 2.300781 -1.082031 L 0.992188 -1.082031 C 0.863281 -0.753906 0.785156 -0.554688 0.761719 -0.480469 C 0.734375 -0.410156 0.722656 -0.351562 0.722656 -0.308594 C 0.722656 -0.226562 0.757812 -0.167969 0.824219 -0.132812 C 0.867188 -0.113281 0.945312 -0.101562 1.0625 -0.0898438 L 1.0625 0 Z "/>
</g>
<g id="glyph-0-1">
<rect x="0" y="0" width="0" height="0" mask="url(#mask-0)"/>
</g>
<g id="glyph-0-2">
<path d="M 2.671875 -0.929688 L 2.671875 -0.589844 L 0.148438 -0.589844 L 0.148438 -0.929688 Z M 2.671875 -1.9375 L 2.671875 -1.597656 L 0.148438 -1.597656 L 0.148438 -1.9375 Z "/>
</g>
<g id="glyph-0-3">
<path d="M 1.089844 -1.679688 C 1.089844 -1.007812 1.046875 -0.550781 0.964844 -0.304688 C 0.921875 -0.175781 0.867188 -0.0820312 0.800781 -0.03125 C 0.734375 0.0234375 0.65625 0.046875 0.5625 0.046875 C 0.464844 0.046875 0.390625 0.0273438 0.339844 -0.0195312 C 0.285156 -0.0585938 0.246094 -0.113281 0.226562 -0.179688 C 0.207031 -0.246094 0.195312 -0.320312 0.191406 -0.398438 C 0.1875 -0.476562 0.183594 -0.554688 0.179688 -0.628906 L 0.304688 -0.628906 C 0.304688 -0.570312 0.320312 -0.507812 0.355469 -0.4375 C 0.390625 -0.367188 0.441406 -0.332031 0.511719 -0.328125 C 0.671875 -0.332031 0.78125 -0.472656 0.851562 -0.746094 C 0.910156 -1.011719 0.941406 -1.371094 0.941406 -1.820312 L 0.941406 -1.96875 L 0.671875 -1.96875 C 0.578125 -1.96875 0.503906 -1.945312 0.453125 -1.898438 C 0.402344 -1.851562 0.367188 -1.792969 0.347656 -1.71875 L 0.226562 -1.71875 C 0.246094 -1.828125 0.269531 -1.925781 0.296875 -2.007812 C 0.324219 -2.089844 0.367188 -2.152344 0.421875 -2.203125 C 0.476562 -2.253906 0.554688 -2.292969 0.660156 -2.320312 C 0.761719 -2.339844 0.890625 -2.347656 1.046875 -2.347656 C 1.632812 -2.339844 2.144531 -2.324219 2.582031 -2.308594 C 2.65625 -2.308594 2.703125 -2.328125 2.734375 -2.359375 C 2.757812 -2.386719 2.773438 -2.417969 2.777344 -2.449219 L 2.875 -2.449219 C 2.871094 -2.261719 2.835938 -2.132812 2.769531 -2.066406 C 2.707031 -2 2.609375 -1.96875 2.480469 -1.96875 L 2.222656 -1.96875 L 2.222656 -0.496094 C 2.21875 -0.257812 2.289062 -0.136719 2.445312 -0.132812 C 2.503906 -0.132812 2.554688 -0.15625 2.589844 -0.203125 C 2.625 -0.25 2.65625 -0.300781 2.675781 -0.359375 C 2.707031 -0.496094 2.726562 -0.628906 2.726562 -0.757812 L 2.847656 -0.757812 C 2.847656 -0.679688 2.847656 -0.59375 2.839844 -0.5 C 2.828125 -0.410156 2.800781 -0.320312 2.765625 -0.238281 C 2.730469 -0.160156 2.675781 -0.09375 2.601562 -0.0390625 C 2.527344 0.015625 2.425781 0.046875 2.300781 0.046875 C 2.199219 0.046875 2.117188 0.03125 2.054688 -0.00390625 C 1.988281 -0.0429688 1.933594 -0.0898438 1.894531 -0.144531 C 1.816406 -0.269531 1.78125 -0.402344 1.785156 -0.542969 L 1.785156 -1.96875 L 1.089844 -1.96875 Z "/>
</g>
<g id="glyph-0-4">
<path d="M 0.0234375 -0.0820312 C 0.171875 -0.09375 0.269531 -0.121094 0.320312 -0.160156 C 0.367188 -0.199219 0.394531 -0.285156 0.394531 -0.414062 L 0.394531 -1.515625 C 0.394531 -1.675781 0.378906 -1.792969 0.347656 -1.863281 C 0.316406 -1.929688 0.261719 -1.964844 0.183594 -1.964844 C 0.167969 -1.964844 0.144531 -1.964844 0.117188 -1.960938 C 0.0898438 -1.957031 0.0625 -1.949219 0.0351562 -1.945312 L 0.0351562 -2.023438 C 0.128906 -2.054688 0.222656 -2.089844 0.320312 -2.125 C 0.417969 -2.160156 0.484375 -2.183594 0.523438 -2.195312 C 0.605469 -2.226562 0.6875 -2.261719 0.773438 -2.300781 C 0.785156 -2.300781 0.792969 -2.296875 0.792969 -2.289062 C 0.796875 -2.28125 0.796875 -2.265625 0.796875 -2.238281 L 0.796875 -1.839844 C 0.902344 -1.984375 1.003906 -2.097656 1.101562 -2.179688 C 1.195312 -2.257812 1.296875 -2.300781 1.402344 -2.300781 C 1.484375 -2.300781 1.550781 -2.273438 1.605469 -2.226562 C 1.65625 -2.175781 1.683594 -2.113281 1.683594 -2.039062 C 1.683594 -1.972656 1.664062 -1.914062 1.621094 -1.871094 C 1.582031 -1.824219 1.53125 -1.800781 1.472656 -1.800781 C 1.410156 -1.800781 1.347656 -1.832031 1.285156 -1.886719 C 1.222656 -1.945312 1.171875 -1.972656 1.136719 -1.972656 C 1.082031 -1.972656 1.011719 -1.925781 0.929688 -1.835938 C 0.84375 -1.742188 0.804688 -1.648438 0.804688 -1.550781 L 0.804688 -0.449219 C 0.804688 -0.308594 0.835938 -0.210938 0.902344 -0.15625 C 0.964844 -0.101562 1.074219 -0.078125 1.226562 -0.0820312 L 1.226562 0 L 0.0234375 0 Z "/>
</g>
<g id="glyph-0-5">
<path d="M 1.238281 -3.378906 L 2.179688 -1.265625 L 1.84375 -1.265625 L 1.175781 -2.847656 L 0.496094 -1.265625 L 0.160156 -1.265625 L 1.101562 -3.378906 Z "/>
</g>
<g id="glyph-0-6">
<path d="M 0.148438 -0.0546875 C 0.746094 -0.675781 1.148438 -1.128906 1.363281 -1.417969 C 1.574219 -1.707031 1.683594 -1.992188 1.683594 -2.265625 C 1.683594 -2.507812 1.617188 -2.691406 1.488281 -2.816406 C 1.355469 -2.941406 1.203125 -3.003906 1.019531 -3.003906 C 0.796875 -3.003906 0.617188 -2.925781 0.476562 -2.761719 C 0.402344 -2.671875 0.328125 -2.535156 0.257812 -2.347656 L 0.152344 -2.371094 C 0.234375 -2.746094 0.375 -3.003906 0.566406 -3.152344 C 0.761719 -3.296875 0.972656 -3.367188 1.195312 -3.367188 C 1.46875 -3.367188 1.691406 -3.28125 1.863281 -3.109375 C 2.03125 -2.9375 2.117188 -2.722656 2.117188 -2.472656 C 2.117188 -2.207031 2.023438 -1.949219 1.839844 -1.703125 C 1.65625 -1.453125 1.257812 -1.015625 0.640625 -0.382812 L 1.761719 -0.382812 C 1.917969 -0.382812 2.027344 -0.398438 2.09375 -0.4375 C 2.15625 -0.476562 2.226562 -0.566406 2.308594 -0.710938 L 2.371094 -0.679688 L 2.101562 0 L 0.148438 0 Z "/>
</g>
</g>
<image id="source-33" x="0" y="0" width="0" height="0"/>
<mask id="mask-0">
<use xlink:href="#source-33"/>
</mask>
</defs>
<g fill="rgb(100%, 100%, 100%)" fill-opacity="1">
<use xlink:href="#glyph-0-0" x="30" y="23.75"/>
<use xlink:href="#glyph-0-1" x="33" y="23.75"/>
<use xlink:href="#glyph-0-2" x="34" y="23.75"/>
<use xlink:href="#glyph-0-1" x="37" y="23.75"/>
</g>
<g fill="rgb(100%, 100%, 100%)" fill-opacity="1">
<use xlink:href="#glyph-0-3" x="38" y="23.75"/>
</g>
<g fill="rgb(100%, 100%, 100%)" fill-opacity="1">
<use xlink:href="#glyph-0-4" x="41" y="23.75"/>
<use xlink:href="#glyph-0-5" x="43" y="23.75"/>
<use xlink:href="#glyph-0-6" x="45" y="23.75"/>
</g>
</svg>
